<?xml version="1.0" encoding="UTF-8" standalone="no"?>
<!-- Created with Inkscape (http://www.inkscape.org/) -->

<svg
   width="215.63071"
   height="245.09021"
   viewBox="0 0 57.052288 64.846786"
   version="1.1"
   id="svg1"
   xmlns="http://www.w3.org/2000/svg"
   xmlns:svg="http://www.w3.org/2000/svg">
  <defs
     id="defs1" />
  <g
     id="layer1"
     transform="translate(0.52574057,0.52706538)"
     style="display:none">
    <rect
       style="fill:#7cd879;fill-opacity:1;stroke:#7cd879;stroke-width:0.92013;stroke-dasharray:none;stroke-opacity:1"
       id="rect1"
       width="132.42104"
       height="63.926659"
       x="-0.064681731"
       y="-0.067000374"
       rx="5.2968407"
       ry="2.557066" />
    <rect
       style="fill:#181d2b;fill-opacity:1;stroke:#7cd879;stroke-width:1.06229;stroke-dasharray:none;stroke-opacity:1"
       id="rect2"
       width="132.81201"
       height="55.989502"
       x="0.0054044113"
       y="0.005078359"
       rx="5.2916665"
       ry="5.2916665" />
    <path
       style="font-weight:bold;font-size:25.4px;font-family:'JetBrains Mono';-inkscape-font-specification:'JetBrains Mono Bold';text-align:center;letter-spacing:0px;text-anchor:middle;display:inline;fill:#7cd879;stroke-width:1.29725"
       d="m 19.548383,38.731327 v -3.3528 q -2.4892,-0.2032 -3.937,-1.5748 -1.422399,-1.397 -1.447799,-3.6068 h 3.174999 q 0,0.9398 0.5842,1.5748 0.5842,0.6096 1.6256,0.8128 v -5.3848 l -0.4572,-0.127 q -2.1844,-0.5588 -3.3782,-2.0066 -1.168399,-1.4478 -1.168399,-3.505199 0,-2.159 1.346199,-3.5306 1.3462,-1.397 3.6576,-1.6002 v -3.3528 h 1.5748 v 3.3274 q 2.3368,0.2032 3.7084,1.5748 1.3716,1.3462 1.397,3.5052 h -3.175 q 0,-0.9144 -0.508,-1.4986 -0.4826,-0.5842 -1.4224,-0.762 v 5.130799 l 0.8382,0.2286 q 2.2098,0.5588 3.3782,2.0066 1.1684,1.4224 1.1684,3.5306 0,2.2098 -1.4732,3.6576 -1.4478,1.4224 -3.9116,1.6256 v 3.3274 z m 1.5748,-6.1214 q 1.0414,-0.1524 1.6256,-0.762 0.5842,-0.635 0.5842,-1.6002 0,-1.1176 -0.7874,-1.8288 -0.7874,-0.7366 -2.159,-0.8382 l 0.7366,-0.9652 z m -1.5748,-7.2898 v -6.095999 q -0.889,0.1778 -1.3716,0.7366 -0.4572,0.5334 -0.4572,1.4224 0,1.142999 0.762,1.904999 0.7874,0.7366 2.1844,0.7874 z m 16.02741,10.1092 q -1.0668,0 -1.7272,-0.635 -0.635,-0.6604 -0.635,-1.7018 0,-1.0668 0.635,-1.7018 0.6604,-0.6604 1.7272,-0.6604 1.0668,0 1.7018,0.6604 0.6604,0.635 0.6604,1.7018 0,1.0414 -0.6604,1.7018 -0.635,0.635 -1.7018,0.635 z m 9.677409,4.318 v -2.8702 h 3.683 q 1.2192,0 1.9304,-0.7366 0.7112,-0.7112 0.7112,-1.9558 v -10.1092 h -6.4516 v -2.870199 h 9.6266 v 13.055599 q 0,2.54 -1.524,4.0132 -1.524,1.4732 -4.1148,1.4732 z m 7.747,-20.878799 q -0.9652,0 -1.524,-0.4826 -0.5588,-0.508 -0.5588,-1.3462 0,-0.8382 0.5588,-1.3208 0.5588,-0.508 1.524,-0.508 0.9652,0 1.524,0.508 0.5588,0.4826 0.5588,1.3208 0,0.8382 -0.5588,1.3462 -0.5588,0.4826 -1.524,0.4826 z m 15.544809,20.878799 v -3.9116 l 0.1016,-3.175 h -0.7366 l 0.9144,-1.6256 q 0,2.032 -1.0922,3.2258 -1.0668,1.1684 -2.9464,1.1684 -2.032,0 -3.302,-1.4478 -1.2446,-1.4478 -1.2446,-3.9116 v -3.7846 q 0,-2.4384 1.2446,-3.8862 1.27,-1.447799 3.302,-1.447799 1.8796,0 2.9464,1.193799 1.0922,1.1684 1.0922,3.2004 l -0.9144,-1.3208 h 0.7112 v -2.819399 h 3.0988 v 18.541999 z m -2.5654,-7.0612 q 1.2192,0 1.8796,-0.7366 0.6858,-0.7366 0.6858,-2.0828 v -3.3528 q 0,-1.3462 -0.6858,-2.0828 -0.6604,-0.7366 -1.8796,-0.7366 -1.2192,0 -1.905,0.6604 -0.6604,0.635 -0.6604,1.9812 v 3.7084 q 0,1.3208 0.6604,1.9812 0.6858,0.6604 1.905,0.6604 z m 13.76681,2.7432 q -2.1336,0 -3.3782,-1.1938 -1.2192,-1.2192 -1.2192,-3.175 0,-1.3716 0.635,-2.3622 0.635,-0.9906 1.8034,-1.524 1.1938,-0.5588 2.794,-0.5588 h 3.4036 v -0.9906 q 0,-1.016 -0.635,-1.5494 -0.6096,-0.5588 -1.8288,-0.5588 -1.1176,0 -1.8034,0.4318 -0.6604,0.4318 -0.7112,1.2192 h -3.048 q 0.1016,-1.905 1.5748,-3.048 1.4986,-1.168399 4.0132,-1.168399 2.667,0 4.1402,1.244599 1.4732,1.2446 1.4732,3.5052 v 9.4742 h -3.0988 v -2.667 h -0.508 l 0.5588,-0.4572 q 0,1.0414 -0.508,1.8034 -0.508,0.7366 -1.4478,1.1684 -0.9398,0.4064 -2.2098,0.4064 z m 1.016,-2.5908 q 1.397,0 2.2098,-0.6858 0.8128,-0.6858 0.8128,-1.8288 v -1.651 h -3.2512 q -1.0414,0 -1.651,0.5842 -0.6096,0.5588 -0.6096,1.4986 0,0.9398 0.635,1.524 0.6604,0.5588 1.8542,0.5588 z m 10.744205,2.3368 -2.1844,-13.969999 h 2.5146 l 1.2446,8.559799 q 0.1016,0.7874 0.1778,1.7018 0.0762,0.9144 0.127,1.524 0.0508,-0.6096 0.1016,-1.524 0.0762,-0.9144 0.2286,-1.7018 l 1.524,-8.559799 h 2.6416 l 1.4732,8.559799 q 0.1524,0.7874 0.2286,1.7272 0.1016,0.9144 0.1524,1.524 0.0508,-0.6096 0.1016,-1.524 0.0762,-0.9398 0.203204,-1.7272 l 1.27,-8.559799 h 2.4384 l -2.2352,13.969999 h -3.276604 l -1.3208,-8.6106 q -0.1016,-0.7366 -0.2286,-1.651 -0.1016,-0.9398 -0.1524,-1.4986 0,0.381 -0.0762,0.9398 -0.0762,0.5588 -0.1524,1.143 -0.0762,0.5842 -0.1524,1.0668 l -1.3716,8.6106 z m 14.732014,0 V 16.633328 h 3.175 v 10.058399 h 2.2352 l 3.3274,-5.486399 h 3.5306 l -4.1402,6.756399 4.2926,7.2136 h -3.6068 l -3.4036,-5.7912 h -2.2352 v 5.7912 z"
       id="text1"
       aria-label="$.jqawk" />
  </g>
  <g
     id="g4"
     transform="translate(0.52574057,0.52706538)">
    <rect
       style="fill:#7cd879;fill-opacity:1;stroke:#7cd879;stroke-width:0.92013;stroke-dasharray:none;stroke-opacity:1"
       id="rect1-5"
       width="55.990002"
       height="63.926659"
       x="-0.064681731"
       y="-0.067000374"
       rx="5.2916665"
       ry="5.2916665" />
    <rect
       style="fill:#181d2b;fill-opacity:1;stroke:#7cd879;stroke-width:1.06229;stroke-dasharray:none;stroke-opacity:1"
       id="rect2-2"
       width="55.990002"
       height="55.989502"
       x="0.0054044113"
       y="0.005078359"
       rx="5.2916665"
       ry="5.2916665" />
    <path
       style="font-weight:bold;font-size:25.4px;font-family:'JetBrains Mono';-inkscape-font-specification:'JetBrains Mono Bold';text-align:center;letter-spacing:0px;text-anchor:middle;fill:#7cd879;stroke-width:1.29725"
       d="m 16.367196,40.090228 q -1.4986,0 -2.5908,-0.5588 -1.0922,-0.5588 -1.6256,-1.5748 -0.5334,-1.016 -0.4064,-2.3876 l 0.381,-3.8608 q 0.1016,-1.0414 -0.3556,-1.5748 -0.4572,-0.5334 -1.5748,-0.5334 H 6.8929959 v -2.921 h 3.3020001 q 1.1176,0 1.5748,-0.5334 0.4572,-0.5334 0.3556,-1.5494 l -0.381,-3.9878 q -0.127,-1.346199 0.4064,-2.336799 0.5588,-0.9906 1.6256,-1.524 1.0922,-0.5588 2.5908,-0.5588 h 1.7526 v 2.921 h -1.2954 q -0.9144,0 -1.4478,0.4826 -0.508,0.4572 -0.4572,1.320799 l 0.381,3.9624 q 0.1016,0.9906 -0.3556,1.7272 -0.4318,0.7366 -1.3716,1.143 -0.9398,0.4064 -2.3622,0.4064 v -0.127 q 1.397,0 2.3368,0.4318 0.9652,0.4318 1.397,1.1938 0.4572,0.7366 0.3556,1.7526 l -0.381,3.9624 q -0.0762,0.8382 0.4318,1.3208 0.5334,0.4572 1.4732,0.4572 h 1.2954 v 2.9464 z m 10.845809,0.7366 v -3.3528 q -2.4892,-0.2032 -3.937,-1.5748 -1.4224,-1.397 -1.4478,-3.6068 h 3.175 q 0,0.9398 0.5842,1.5748 0.5842,0.6096 1.6256,0.8128 v -5.3848 l -0.4572,-0.127 q -2.1844,-0.5588 -3.3782,-2.0066 -1.1684,-1.4478 -1.1684,-3.5052 0,-2.159 1.3462,-3.530599 1.3462,-1.397 3.6576,-1.6002 v -3.3528 h 1.5748 v 3.3274 q 2.3368,0.2032 3.7084,1.5748 1.3716,1.346199 1.397,3.505199 h -3.175 q 0,-0.9144 -0.508,-1.4986 -0.4826,-0.5842 -1.4224,-0.762 v 5.1308 l 0.8382,0.2286 q 2.2098,0.5588 3.3782,2.0066 1.1684,1.4224 1.1684,3.5306 0,2.2098 -1.4732,3.6576 -1.4478,1.4224 -3.9116,1.6256 v 3.3274 z m 1.5748,-6.1214 q 1.0414,-0.1524 1.6256,-0.762 0.5842,-0.635 0.5842,-1.6002 0,-1.1176 -0.7874,-1.8288 -0.7874,-0.7366 -2.159,-0.8382 l 0.7366,-0.9652 z m -1.5748,-7.2898 v -6.096 q -0.889,0.1778 -1.3716,0.7366 -0.4572,0.5334 -0.4572,1.4224 0,1.143 0.762,1.905 0.7874,0.7366 2.1844,0.7874 z m 10.668009,12.6746 v -2.9464 h 1.2954 q 0.9398,0 1.4732,-0.4572 0.5334,-0.4826 0.4318,-1.3208 l -0.508,-3.9624 q -0.1016,-1.016 0.3302,-1.778 0.4318,-0.762 1.2954,-1.1938 0.889,-0.4572 2.0574,-0.4572 v 0.1778 q -1.778,0 -2.8194,-0.889 -1.0414,-0.889 -0.8636,-2.3876 l 0.508,-3.9624 q 0.1016,-0.863599 -0.4572,-1.320799 -0.5334,-0.4826 -1.4478,-0.4826 h -1.2954 v -2.921 h 1.7526 q 1.4986,0 2.5908,0.5588 1.0922,0.5334 1.6256,1.524 0.5588,0.9906 0.4064,2.336799 l -0.508,3.9878 q -0.127,1.016 0.3556,1.5494 0.4826,0.5334 1.6002,0.5334 h 3.4036 v 2.921 h -3.4036 q -1.1176,0 -1.6002,0.5334 -0.4826,0.5334 -0.3556,1.5748 l 0.508,3.8608 q 0.1524,1.3716 -0.4064,2.3876 -0.5334,1.016 -1.6256,1.5748 -1.0922,0.5588 -2.5908,0.5588 z"
       id="text4"
       aria-label="{$}" />
  </g>
</svg>
